# xmcd CD database file
#
# Track frame offsets:
#	150
#	17142
#	34557
#	48975
#	65282
#	77450
#	92085
#	108615
#	127442
#	143615
#	156515
#	169172
#	185252
#	204682
#	215787
#	231435
#
# Disc length: 3249 seconds
#
# Revision: 0
# Processed by: cddbd v1.5.2PL0 Copyright (c) Steve Scherf et al.
# Submitted via: CDex 1.51
#
DISCID=e70caf10
DTITLE=Various Artist - Kenny Rogers and Friends
DYEAR=1900
DGENRE=Country
TTITLE0=Don't Fall in Love with a Dreamer
TTITLE1=Real Love
TTITLE2=Hey Won't You Play Another Somebody Done Somebody Wrong Song
TTITLE3=Lucille
TTITLE4=Galveston
TTITLE5=You Needed Me
TTITLE6=You Decorated My Life
TTITLE7=You've Lost That Loving Feeling
TTITLE8=The Gambler
TTITLE9=Bonaparte's Retreat
TTITLE10=Baby I'm a Want You
TTITLE11=Heartbreaker
TTITLE12=She Believes in Me
TTITLE13=Try a Little Kindness
TTITLE14=Let it Be Me
TTITLE15=9 to 5
EXTD=
EXTT0=
EXTT1=
EXTT2=
EXTT3=
EXTT4=
EXTT5=
EXTT6=
EXTT7=
EXTT8=
EXTT9=
EXTT10=
EXTT11=
EXTT12=
EXTT13=
EXTT14=
EXTT15=
PLAYORDER=
